<?xml version="1.0" encoding="iso-8859-1"?>
<!-- Generator: Adobe Illustrator 19.0.0, SVG Export Plug-In . SVG Version: 6.00 Build 0)  -->
<svg version="1.1" id="Capa_1" xmlns="http://www.w3.org/2000/svg" xmlns:xlink="http://www.w3.org/1999/xlink" x="0px" y="0px"
	 viewBox="0 0 512 512" style="enable-background:new 0 0 512 512;" xml:space="preserve">
<g>
	<g>
		<path d="M467.004,156.057H321.431l-47.728-47.928c-27.058-27.059-69.996-29.436-99.875-5.531l-91.499,73.199
			c-8.09-11.999-21.805-19.906-37.332-19.906H14.999C6.715,155.89,0,162.605,0,170.888v239.977c0,8.283,6.715,14.999,14.999,14.999
			h29.997c17.596,0,32.857-10.159,40.249-24.915c44.881,16.533,91.866,24.915,139.84,24.915c6.342,0,53.54,0,59.887,0
			c24.811,0,44.996-20.185,44.996-44.996c0-5.855-1.136-11.448-3.181-16.584c19.095-5.203,33.178-22.688,33.178-43.41
			c0-5.855-1.136-11.448-3.181-16.584c19.095-5.203,33.178-22.688,33.178-43.41c0-5.27-0.919-10.328-2.591-15.032h79.633
			c24.811,0,44.996-20.185,44.996-44.996v-0.1C512,175.997,491.815,156.057,467.004,156.057z M59.994,380.868
			c0,8.27-6.728,14.999-14.999,14.999H29.997V185.887h14.999c8.27,0,14.999,6.728,14.999,14.999V380.868z M482.003,200.852
			c0,8.27-6.728,15.199-14.999,15.199H285.122c-8.283,0-14.999,6.515-14.999,14.799c0,8.283,6.715,14.999,14.999,14.999h59.187
			c0.22,0.01,0.436,0.033,0.657,0.033c8.27,0,14.999,6.728,14.999,14.999c0,8.27-6.728,14.999-14.999,14.999h-59.994
			c-8.283,0-14.999,6.715-14.999,14.999s6.715,14.999,14.999,14.999h29.997c8.27,0,14.999,6.728,14.999,14.999
			s-6.728,14.999-14.999,14.999h-29.997c-8.283,0-14.999,6.715-14.999,14.999s6.715,14.999,14.999,14.999
			c8.27,0,14.999,6.728,14.999,14.999s-6.728,14.999-14.999,14.999c-6.353,0-53.545,0-59.887,0
			c-46.424,0-91.848-8.469-135.094-25.182V208.081l102.575-82.06c17.926-14.343,43.689-12.916,59.925,3.319l26.518,26.718
			c-50.664,0-0.399-0.067-54.032-0.067c-8.283,0-14.999,6.715-14.999,14.999c0,8.283,6.715,14.799,14.999,14.799
			c3.29,0,238.73,0.067,242.026,0.067c8.27,0,14.999,6.683,14.999,14.899V200.852z"/>
	</g>
</g>
<g>
</g>
<g>
</g>
<g>
</g>
<g>
</g>
<g>
</g>
<g>
</g>
<g>
</g>
<g>
</g>
<g>
</g>
<g>
</g>
<g>
</g>
<g>
</g>
<g>
</g>
<g>
</g>
<g>
</g>
</svg>
